<mxfile host="65bd71144e">
    <diagram id="aDLvdtGcDJh9huNigV2b" name="Page-1">
        <mxGraphModel dx="926" dy="630" grid="0" gridSize="10" guides="1" tooltips="1" connect="1" arrows="1" fold="1" page="1" pageScale="1" pageWidth="850" pageHeight="1100" background="#FFFFFF" math="0" shadow="0">
            <root>
                <mxCell id="0"/>
                <mxCell id="1" parent="0"/>
                <mxCell id="2" value="User" style="html=1;dashed=0;whitespace=wrap;fillColor=#B3DBBB;fontColor=#000000;strokeColor=#B09500;" parent="1" vertex="1">
                    <mxGeometry x="33" y="202" width="100" height="50" as="geometry"/>
                </mxCell>
                <mxCell id="5" value="the model predicts the road sign based on the image" style="rounded=1;whiteSpace=wrap;html=1;fontColor=#000000;fillColor=#CCD2FF;strokeColor=#3A5431;labelBackgroundColor=none;" parent="1" vertex="1">
                    <mxGeometry x="239" y="126" width="120" height="60" as="geometry"/>
                </mxCell>
                <object placeholders="1" c4Type="Relationship" c4Description="image file" label="&lt;div style=&quot;text-align: left&quot;&gt;&lt;div style=&quot;text-align: center&quot;&gt;&lt;b&gt;%c4Description%&lt;/b&gt;&lt;/div&gt;&lt;/div&gt;" id="7">
                    <mxCell style="endArrow=blockThin;html=1;fontSize=10;fontColor=#404040;strokeWidth=1;endFill=1;strokeColor=#828282;elbow=vertical;metaEdit=1;endSize=14;startSize=14;jumpStyle=arc;jumpSize=16;rounded=0;edgeStyle=orthogonalEdgeStyle;exitX=1;exitY=0.25;exitDx=0;exitDy=0;entryX=0;entryY=0.5;entryDx=0;entryDy=0;labelBackgroundColor=#FFFFFF;" parent="1" source="2" target="5" edge="1">
                        <mxGeometry width="240" relative="1" as="geometry">
                            <mxPoint x="303" y="320" as="sourcePoint"/>
                            <mxPoint x="543" y="320" as="targetPoint"/>
                        </mxGeometry>
                    </mxCell>
                </object>
                <mxCell id="8" value="sends one frame each to the recognition model" style="rounded=1;whiteSpace=wrap;html=1;fontColor=#000000;fillColor=#CCD2FF;strokeColor=#3A5431;" parent="1" vertex="1">
                    <mxGeometry x="239" y="266" width="120" height="60" as="geometry"/>
                </mxCell>
                <object placeholders="1" c4Type="Relationship" c4Description="video file" label="&lt;div style=&quot;text-align: left&quot;&gt;&lt;div style=&quot;text-align: center&quot;&gt;&lt;b&gt;%c4Description%&lt;/b&gt;&lt;/div&gt;&lt;/div&gt;" id="9">
                    <mxCell style="endArrow=blockThin;html=1;fontSize=10;fontColor=#404040;strokeWidth=1;endFill=1;strokeColor=#828282;elbow=vertical;metaEdit=1;endSize=14;startSize=14;jumpStyle=arc;jumpSize=16;rounded=0;edgeStyle=orthogonalEdgeStyle;exitX=1;exitY=0.75;exitDx=0;exitDy=0;entryX=0;entryY=0.5;entryDx=0;entryDy=0;labelBackgroundColor=#FFFFFF;" parent="1" source="2" target="8" edge="1">
                        <mxGeometry width="240" relative="1" as="geometry">
                            <mxPoint x="143" y="224.5" as="sourcePoint"/>
                            <mxPoint x="296" y="182" as="targetPoint"/>
                        </mxGeometry>
                    </mxCell>
                </object>
                <object placeholders="1" c4Type="Relationship" c4Description="image file" label="&lt;div style=&quot;text-align: left&quot;&gt;&lt;div style=&quot;text-align: center&quot;&gt;&lt;b&gt;%c4Description%&lt;/b&gt;&lt;/div&gt;&lt;/div&gt;" id="10">
                    <mxCell style="endArrow=blockThin;html=1;fontSize=10;fontColor=#404040;strokeWidth=1;endFill=1;strokeColor=#828282;elbow=vertical;metaEdit=1;endSize=14;startSize=14;jumpStyle=arc;jumpSize=16;rounded=0;edgeStyle=orthogonalEdgeStyle;exitX=0.5;exitY=0;exitDx=0;exitDy=0;entryX=0.5;entryY=1;entryDx=0;entryDy=0;labelBackgroundColor=#FFFFFF;" parent="1" source="8" target="5" edge="1">
                        <mxGeometry width="240" relative="1" as="geometry">
                            <mxPoint x="143" y="224.5" as="sourcePoint"/>
                            <mxPoint x="249" y="166" as="targetPoint"/>
                        </mxGeometry>
                    </mxCell>
                </object>
                <mxCell id="11" value="create queries with the identified sign type" style="rounded=1;whiteSpace=wrap;html=1;fontColor=#000000;fillColor=#CCD2FF;strokeColor=#3A5431;" parent="1" vertex="1">
                    <mxGeometry x="507" y="197" width="120" height="60" as="geometry"/>
                </mxCell>
                <object placeholders="1" c4Type="Relationship" c4Description="sign label (string)" label="&lt;div style=&quot;text-align: left&quot;&gt;&lt;div style=&quot;text-align: center&quot;&gt;&lt;b&gt;%c4Description%&lt;/b&gt;&lt;/div&gt;&lt;/div&gt;" id="12">
                    <mxCell style="endArrow=blockThin;html=1;fontSize=10;fontColor=#404040;strokeWidth=1;endFill=1;strokeColor=#828282;elbow=vertical;metaEdit=1;endSize=14;startSize=14;jumpStyle=arc;jumpSize=16;rounded=0;edgeStyle=orthogonalEdgeStyle;exitX=1;exitY=0.5;exitDx=0;exitDy=0;entryX=0;entryY=0.5;entryDx=0;entryDy=0;labelBackgroundColor=#FFFFFF;" parent="1" source="5" target="11" edge="1">
                        <mxGeometry x="-0.0016" width="240" relative="1" as="geometry">
                            <mxPoint x="309" y="276" as="sourcePoint"/>
                            <mxPoint x="309" y="196" as="targetPoint"/>
                            <mxPoint as="offset"/>
                        </mxGeometry>
                    </mxCell>
                </object>
                <mxCell id="13" value="organize the data in a user friendly format" style="rounded=1;whiteSpace=wrap;html=1;fontColor=#000000;fillColor=#CCD2FF;strokeColor=#3A5431;" parent="1" vertex="1">
                    <mxGeometry x="726" y="338" width="120" height="60" as="geometry"/>
                </mxCell>
                <object placeholders="1" c4Type="Relationship" c4Description="query (string)" label="&lt;div style=&quot;text-align: left&quot;&gt;&lt;div style=&quot;text-align: center&quot;&gt;&lt;b&gt;%c4Description%&lt;/b&gt;&lt;/div&gt;&lt;/div&gt;" id="14">
                    <mxCell style="endArrow=blockThin;html=1;fontSize=10;fontColor=#404040;strokeWidth=1;endFill=1;strokeColor=#828282;elbow=vertical;metaEdit=1;endSize=14;startSize=14;jumpStyle=arc;jumpSize=16;rounded=0;edgeStyle=orthogonalEdgeStyle;exitX=1;exitY=0.5;exitDx=0;exitDy=0;labelBackgroundColor=#FFFFFF;" parent="1" source="11" target="18" edge="1">
                        <mxGeometry x="-0.0297" y="13" width="240" relative="1" as="geometry">
                            <mxPoint x="369" y="166" as="sourcePoint"/>
                            <mxPoint x="483" y="237" as="targetPoint"/>
                            <mxPoint as="offset"/>
                        </mxGeometry>
                    </mxCell>
                </object>
                <mxCell id="18" value="Apache Jena&lt;br&gt;Fuseki" style="html=1;dashed=0;whitespace=wrap;fillColor=#B3DBBB;fontColor=#000000;strokeColor=#B09500;" parent="1" vertex="1">
                    <mxGeometry x="728" y="202" width="116" height="50" as="geometry"/>
                </mxCell>
                <mxCell id="21" value="&lt;font style=&quot;font-size: 10px;&quot;&gt;TDB&lt;/font&gt;" style="html=1;dashed=0;whitespace=wrap;shape=mxgraph.dfd.dataStoreID;align=left;spacingLeft=3;points=[[0,0],[0.5,0],[1,0],[0,0.5],[1,0.5],[0,1],[0.5,1],[1,1]];labelBackgroundColor=none;strokeColor=#FFFF99;fontColor=#000000;fillColor=#B3DBBB;gradientColor=none;" parent="1" vertex="1">
                    <mxGeometry x="696" y="75" width="114" height="30" as="geometry"/>
                </mxCell>
                <mxCell id="22" value="&lt;span style=&quot;font-size: 12px;&quot;&gt;Traffic Sign Ontology&lt;/span&gt;" style="html=1;dashed=0;whitespace=wrap;shape=partialRectangle;right=0;labelBackgroundColor=none;strokeColor=#FFFF99;fontSize=10;fontColor=#000000;fillColor=#B3DBBB;gradientColor=none;" parent="1" vertex="1">
                    <mxGeometry x="726.5" y="75" width="119" height="30" as="geometry"/>
                </mxCell>
                <object placeholders="1" c4Type="Relationship" c4Description="RDF data" label="&lt;div style=&quot;text-align: left&quot;&gt;&lt;div style=&quot;text-align: center&quot;&gt;&lt;b&gt;%c4Description%&lt;/b&gt;&lt;/div&gt;&lt;/div&gt;" id="23">
                    <mxCell style="endArrow=blockThin;html=1;fontSize=10;fontColor=#404040;strokeWidth=1;endFill=1;strokeColor=#828282;elbow=vertical;metaEdit=1;endSize=14;startSize=14;jumpStyle=arc;jumpSize=16;rounded=0;edgeStyle=orthogonalEdgeStyle;exitX=0.75;exitY=1;exitDx=0;exitDy=0;entryX=0.75;entryY=0;entryDx=0;entryDy=0;labelBackgroundColor=#FFFFFF;" parent="1" source="22" target="18" edge="1">
                        <mxGeometry x="-0.2193" y="10" width="240" relative="1" as="geometry">
                            <mxPoint x="633" y="153" as="sourcePoint"/>
                            <mxPoint x="633.75" y="76.99999999999989" as="targetPoint"/>
                            <mxPoint as="offset"/>
                        </mxGeometry>
                    </mxCell>
                </object>
                <object placeholders="1" c4Type="Relationship" c4Description="query" label="&lt;div style=&quot;text-align: left&quot;&gt;&lt;div style=&quot;text-align: center&quot;&gt;&lt;b&gt;%c4Description%&lt;/b&gt;&lt;/div&gt;&lt;/div&gt;" id="24">
                    <mxCell style="endArrow=blockThin;html=1;fontSize=10;fontColor=#404040;strokeWidth=1;endFill=1;strokeColor=#828282;elbow=vertical;metaEdit=1;endSize=14;startSize=14;jumpStyle=arc;jumpSize=16;rounded=0;edgeStyle=orthogonalEdgeStyle;exitX=0.25;exitY=0;exitDx=0;exitDy=0;entryX=0.25;entryY=1;entryDx=0;entryDy=0;labelBackgroundColor=#FFFFFF;" parent="1" source="18" target="22" edge="1">
                        <mxGeometry width="240" relative="1" as="geometry">
                            <mxPoint x="721" y="133" as="sourcePoint"/>
                            <mxPoint x="721.75" y="56.999999999999886" as="targetPoint"/>
                            <mxPoint as="offset"/>
                        </mxGeometry>
                    </mxCell>
                </object>
                <object placeholders="1" c4Type="Relationship" c4Description="RDF data (json)" label="&lt;div style=&quot;text-align: left&quot;&gt;&lt;div style=&quot;text-align: center&quot;&gt;&lt;b&gt;%c4Description%&lt;/b&gt;&lt;/div&gt;&lt;/div&gt;" id="26">
                    <mxCell style="endArrow=blockThin;html=1;fontSize=10;fontColor=#404040;strokeWidth=1;endFill=1;strokeColor=#828282;elbow=vertical;metaEdit=1;endSize=14;startSize=14;jumpStyle=arc;jumpSize=16;rounded=0;edgeStyle=orthogonalEdgeStyle;exitX=0.5;exitY=1;exitDx=0;exitDy=0;labelBackgroundColor=#FFFFFF;" parent="1" source="18" target="13" edge="1">
                        <mxGeometry x="-0.2376" y="2" width="240" relative="1" as="geometry">
                            <mxPoint x="655" y="339" as="sourcePoint"/>
                            <mxPoint x="654.2500000000005" y="428" as="targetPoint"/>
                            <mxPoint as="offset"/>
                        </mxGeometry>
                    </mxCell>
                </object>
                <object placeholders="1" c4Type="Relationship" c4Description="HTTP response" label="&lt;div style=&quot;text-align: left&quot;&gt;&lt;div style=&quot;text-align: center&quot;&gt;&lt;b&gt;%c4Description%&lt;/b&gt;&lt;/div&gt;&lt;/div&gt;" id="27">
                    <mxCell style="endArrow=blockThin;html=1;fontSize=10;fontColor=#404040;strokeWidth=1;endFill=1;strokeColor=#828282;elbow=vertical;metaEdit=1;endSize=14;startSize=14;jumpStyle=arc;jumpSize=16;rounded=0;edgeStyle=orthogonalEdgeStyle;exitX=0;exitY=0.5;exitDx=0;exitDy=0;entryX=0.5;entryY=1;entryDx=0;entryDy=0;labelBackgroundColor=#FFFFFF;" parent="1" source="13" target="2" edge="1">
                        <mxGeometry x="-0.3138" width="240" relative="1" as="geometry">
                            <mxPoint x="484" y="365" as="sourcePoint"/>
                            <mxPoint x="633" y="428.0000000000001" as="targetPoint"/>
                            <mxPoint as="offset"/>
                        </mxGeometry>
                    </mxCell>
                </object>
            </root>
        </mxGraphModel>
    </diagram>
</mxfile>